<?xml version="1.0" encoding="UTF-8" standalone="no"?> <svg xmlns="http://www.w3.org/2000/svg" viewBox="0 0 64 64"><g id="Layer_98" data-name="Layer 98"><path d="M35.15,29.34h21.3a.5.5,0,0,0,.5-.5V25.56a.5.5,0,0,0-.5-.5H42L60.35,6.68a.5.5,0,0,0,0-.71L58,3.65a.5.5,0,0,0-.71,0L38.94,22V7.55a.5.5,0,0,0-.5-.5H35.15a.5.5,0,0,0-.5.5V28.84A.5.5,0,0,0,35.15,29.34Z"/><path d="M42,38.94H56.45a.5.5,0,0,0,.5-.5V35.16a.5.5,0,0,0-.5-.5H35.15a.5.5,0,0,0-.5.5V56.45a.5.5,0,0,0,.5.5h3.29a.5.5,0,0,0,.5-.5V42L57.32,60.35a.5.5,0,0,0,.71,0L60.35,58a.5.5,0,0,0,0-.71Z"/><path d="M28.85,34.66H7.55a.5.5,0,0,0-.5.5v3.28a.5.5,0,0,0,.5.5H22L3.65,57.32a.5.5,0,0,0,0,.71L6,60.35a.5.5,0,0,0,.71,0L25.06,42V56.45a.5.5,0,0,0,.5.5h3.29a.5.5,0,0,0,.5-.5V35.16A.5.5,0,0,0,28.85,34.66Z"/><path d="M28.85,7.05H25.56a.5.5,0,0,0-.5.5V22L6.68,3.65a.5.5,0,0,0-.71,0L3.65,6a.5.5,0,0,0,0,.71L22,25.06H7.55a.5.5,0,0,0-.5.5v3.28a.5.5,0,0,0,.5.5h21.3a.5.5,0,0,0,.5-.5V7.55A.5.5,0,0,0,28.85,7.05Z"/></g></svg>